<svg viewBox="0 0 800 600" xmlns="http://www.w3.org/2000/svg">
  <!-- Magma background -->
  <rect width="800" height="600" fill="#660000"/>
  
  <!-- Lava waves -->
  <path d="M 0 400 Q 100 380 200 400 T 400 400 T 600 400 T 800 400 L 800 600 L 0 600 Z" 
        fill="#ff4500" opacity="0.8"/>
  <path d="M 0 420 Q 150 400 300 420 T 600 420 T 800 420 L 800 600 L 0 600 Z" 
        fill="#ff6347" opacity="0.6"/>
  
  <!-- Lava particles -->
  <circle cx="150" cy="380" r="8" fill="#ffaa00" opacity="0.7"/>
  <circle cx="350" cy="400" r="6" fill="#ffaa00" opacity="0.5"/>
  <circle cx="550" cy="390" r="7" fill="#ffaa00" opacity="0.6"/>
  <circle cx="700" cy="410" r="5" fill="#ffaa00" opacity="0.4"/>
  
  <!-- Black rock island -->
  <polygon points="300,300 250,380 350,390 450,380 400,300" fill="#1a1a1a"/>
  <polygon points="320,320 280,370 360,375 380,330" fill="#2a2a2a"/>
  
  <!-- Dragon body on rock -->
  <ellipse cx="350" cy="310" rx="70" ry="50" fill="#8b0000"/>
  
  <!-- Dragon head -->
  <circle cx="430" cy="280" r="35" fill="#a00000"/>
  
  <!-- Dragon horns -->
  <polygon points="415,250 410,200 420,250" fill="#a00000"/>
  <polygon points="445,250 450,200 440,250" fill="#a00000"/>
  
  <!-- Dragon eyes -->
  <circle cx="440" cy="270" r="6" fill="#ffff00"/>
  <circle cx="450" cy="270" r="6" fill="#ffff00"/>
  
  <!-- Dragon mouth -->
  <path d="M 460 280 Q 480 285 470 295 Z" fill="#ff4500"/>
  
  <!-- Dragon tail -->
  <path d="M 280 310 Q 200 290 180 320 Q 160 340 200 360" 
        stroke="#8b0000" stroke-width="30" fill="none"/>
  
  <!-- Treasure -->
  <circle cx="300" cy="340" r="8" fill="#ffd700"/>
  <circle cx="320" cy="345" r="7" fill="#ffd700"/>
  <circle cx="340" cy="342" r="6" fill="#ffd700"/>
  
  <!-- Glow from dragon -->
  <circle cx="350" cy="310" r="120" fill="#ff4500" opacity="0.1"/>
  
  <!-- Text -->
  <text x="400" y="550" font-size="24" fill="#ffff00" text-anchor="middle" font-family="Arial">
    Lava Chamber - The Red Drake
  </text>
</svg>