<svg viewBox="0 0 800 600" xmlns="http://www.w3.org/2000/svg">
  <!-- Water background -->
  <rect width="800" height="400" fill="#001a4d"/>
  <rect y="400" width="800" height="200" fill="#003d99"/>
  
  <!-- Water ripples -->
  <circle cx="200" cy="200" r="40" fill="none" stroke="#0066cc" stroke-width="2" opacity="0.4"/>
  <circle cx="200" cy="200" r="60" fill="none" stroke="#0066cc" stroke-width="1" opacity="0.2"/>
  <circle cx="600" cy="250" r="35" fill="none" stroke="#0066cc" stroke-width="2" opacity="0.3"/>
  
  <!-- Stone bridge -->
  <rect x="200" y="320" width="400" height="25" fill="#5c5c5c"/>
  <line x1="220" y1="345" x2="220" y2="450" stroke="#4a4a4a" stroke-width="12"/>
  <line x1="580" y1="345" x2="580" y2="450" stroke="#4a4a4a" stroke-width="12"/>
  
  <!-- Bridge details -->
  <rect x="210" y="320" width="380" height="10" fill="#6b6b6b" opacity="0.6"/>
  
  <!-- Bioluminescent plants on walls -->
  <circle cx="150" cy="150" r="8" fill="#00ff00" opacity="0.7"/>
  <circle cx="200" cy="100" r="6" fill="#00ff00" opacity="0.6"/>
  <circle cx="650" cy="180" r="7" fill="#00ff00" opacity="0.7"/>
  <circle cx="700" cy="120" r="5" fill="#00ff00" opacity="0.5"/>
  <circle cx="100" cy="250" r="7" fill="#00ff00" opacity="0.6"/>
  <circle cx="750" cy="300" r="6" fill="#00ff00" opacity="0.6"/>
  
  <!-- Glowing vines -->
  <path d="M 150 150 Q 160 180 140 210" stroke="#00ff00" stroke-width="3" opacity="0.5" fill="none"/>
  <path d="M 650 180 Q 670 220 640 260" stroke="#00ff00" stroke-width="3" opacity="0.5" fill="none"/>
  
  <!-- River/water below bridge -->
  <path d="M 0 400 Q 100 380 200 400 T 400 400 T 600 400 T 800 400 L 800 600 L 0 600 Z" 
        fill="#0052cc" opacity="0.8"/>
  
  <!-- Serpent head emerging from water -->
  <ellipse cx="400" cy="420" rx="45" ry="35" fill="#4a9eff"/>
  <circle cx="430" cy="410" r="15" fill="#4a9eff"/>
  
  <!-- Serpent eye -->
  <circle cx="435" cy="408" r="5" fill="#ffff00"/>
  
  <!-- Serpent scales shimmer -->
  <circle cx="380" cy="430" r="6" fill="#66ccff" opacity="0.7"/>
  <circle cx="390" cy="440" r="5" fill="#66ccff" opacity="0.6"/>
  <circle cx="410" cy="445" r="5" fill="#66ccff" opacity="0.6"/>
  <circle cx="425" cy="440" r="6" fill="#66ccff" opacity="0.7"/>
  
  <!-- Text -->
  <text x="400" y="550" font-size="24" fill="#90ee90" text-anchor="middle" font-family="Arial">
    Underground River - Ancient Guardian
  </text>
</svg>